<svg id="Layer_1" data-name="Layer 1" xmlns="http://www.w3.org/2000/svg" viewBox="0 0 1037.76 818.98"><defs><style>.cls-1{fill:#fff;}</style></defs><path class="cls-1" d="M1057.57,383.91c-.34-37.54-16.89-72.53-59.72-71.84-62.12,1-62-34.64-58.7-78.32,4.94-67.23-24.92-103.24-95.9-103.07q-363.19.76-726.23-.17c-66.21-.17-95,31.57-94.87,95.73q.51,316.1-1,632.2c-.51,66.89,30,91.12,96.41,89.76,139.92-2.9,280-.85,419.94-.85,139.92-.17,280.18-4.78,419.93,1.87,72.53,3.42,100.17-25.93,100.68-89.24C1059.44,701.29,1058.93,542.6,1057.57,383.91ZM153.37,200.3q327.87,1.8,655.75,0c39.76-.17,57.33,10.07,57.68,52.73.34,45-21,51.36-58.87,50.85-110.75-1.54-221.49-.52-332.4-.52-107.84,0-215.69-1.36-323.53.69-39.07.85-57.16-7.17-56.82-51.53C95.52,208,115,200.13,153.37,200.3ZM982.66,814.76c1.36,48.8-12.8,64.84-63.14,63.48-128.14-3.24-256.46-1-384.78-1-125.25.17-250.67-.85-375.91.69-39.93.51-64.5-2.22-63-53.75,3.59-129.69,3.24-259.71-.34-389.4-1.37-50.33,21.67-54.43,62.28-54.09,253.57,1.2,507.3,1.71,760.87-.51,49.14-.51,65.35,13.65,64.16,62.63C979.76,566.66,979.42,690.88,982.66,814.76Z" transform="translate(-21.12 -130.51)"/><path class="cls-1" d="M937.44,606.76c.85,42.31-21.5,61.42-57.85,62.45-35,1-61.43-13.14-62.28-53.41-.68-37.88,20.14-60.41,56.31-60.92C907.92,554.54,933.17,572.63,937.44,606.76Z" transform="translate(-21.12 -130.51)"/></svg>