<svg id="Layer_1" data-name="Layer 1" xmlns="http://www.w3.org/2000/svg" viewBox="0 0 1036.36 1036.36"><defs><style>.cls-1{fill:#fff;}</style></defs><path class="cls-1" d="M971.24,21.82H108.76a87,87,0,0,0-86.94,86.94V971.24a87,87,0,0,0,86.94,86.94H971.24a87,87,0,0,0,86.94-86.94V108.76A87,87,0,0,0,971.24,21.82ZM350.08,277.44c144.84,1.37,289.7.57,434.55,1,35.18.09,78.5-1.39,78.51,45.71,0,51.53-49.81,37.77-78.81,38.31-147.7,2.72-295.48.68-443.22,1.64-42.65.28-75.39-19-113.7-42.72C268.19,293.75,304.85,277,350.08,277.44Zm251.8,312.77c-26.18-1.75-42.63-18.34-41.09-46.21,1.36-24.82,19.71-35.7,41.24-36.39,64-2.08,128.29-5.4,191.92-.81,28,2,67.18,11.34,60.19,55.65-6.67,42.27-41,30.44-68.94,29.78-23.29-.55-46.59-.12-69.89-.12v-1.25C677.48,590.86,639.53,592.74,601.88,590.21ZM315.47,814.35c-18.81,1-34.31-6.88-42-24.63-9.39-21.6-1.95-41,15.54-53.85,66.06-48.37,74.28-95.13,2.48-146.52-23.17-16.58-31.52-43.06-9.21-67.73,24.07-26.6,49.09-12.32,68.46,6.07,43.28,41.09,93.37,77,115.89,123.61C463.91,689.27,341.35,813,315.47,814.35Zm489.66,22c-28.84.51-57.69.1-86.54.1v-1.11c-37.49,0-75.24,2.73-112.39-.79-35.05-3.32-45.36-32.86-45.51-62-.14-27.88,21.74-38.25,47.65-38.34q99.52-.35,199,.35c31.87.27,59.25,11.19,60.08,47C868.35,820.77,841.46,835.75,805.13,836.38Z" transform="translate(-21.82 -21.82)"/></svg>