<svg id="Layer_1" data-name="Layer 1" xmlns="http://www.w3.org/2000/svg" viewBox="0 0 999.65 983.9"><defs><style>.cls-1{fill:#fff;}</style></defs><path class="cls-1" d="M538.23,1031.57c-107-.08-214,1.13-321-.39C90.73,1029.38,42.35,983.37,40.8,861.77c-1.65-129.43,1.76-258.93-.58-388.34C39,405,65.24,355.71,121.33,317.09Q293.14,198.8,462.14,76.55c53.54-38.92,101.44-37.36,154.3.91,115.09,83.3,231.75,164.48,348.15,246,49.92,35,74.08,81,73.69,142.29-.85,132.36,3.08,264.78.85,397.11-1.93,115.28-55.52,165.4-170.94,167.56-56.46,1.06-113,1-169.43,1.19C645.25,1031.79,591.74,1031.65,538.23,1031.57Zm7-79.81v-.4c106.78,0,213.59-1.48,320.32.55,64.1,1.22,91.32-27.28,90.79-89.33-1.06-126.22-1.43-252.47.27-378.68.61-45.52-15.32-76.18-54-102.56C797.71,309.76,695,235.07,592.64,159.87c-34.79-25.57-62-33.25-101.63-3.55-101.51,76-207.3,146.35-311.09,219.37-34.85,24.51-59.33,52.7-58.26,100.9,2.87,129.1,1.88,258.3,1,387.44-.45,63.76,30.85,89.1,93.33,88.18C325.68,950.6,435.44,951.76,545.19,951.76Z" transform="translate(-40.18 -48.05)"/></svg>