<svg id="Layer_1" data-name="Layer 1" xmlns="http://www.w3.org/2000/svg" viewBox="0 0 632.59 1074.48"><defs><style>.cls-1{fill:#fff;}.cls-2{fill:none;stroke:#fff;stroke-linecap:round;stroke-miterlimit:10;stroke-width:64.18px;}</style></defs><path class="cls-1" d="M439.11,426.85a11.72,11.72,0,0,1,11.7,11.7v368a11.72,11.72,0,0,1-11.7,11.7H299.59a11.72,11.72,0,0,1-11.7-11.7v-368a11.72,11.72,0,0,1,11.7-11.7H439.11m0-64.18H299.59a75.88,75.88,0,0,0-75.88,75.88v368a75.88,75.88,0,0,0,75.88,75.88H439.11A75.89,75.89,0,0,0,515,806.55v-368a75.89,75.89,0,0,0-75.89-75.88Z" transform="translate(-223.71 -2.76)"/><line class="cls-2" x1="145.65" y1="385.96" x2="145.65" y2="197.19"/><line class="cls-2" x1="145.65" y1="1042.38" x2="145.65" y2="853.61"/><path class="cls-1" d="M780.41,261.75a11.72,11.72,0,0,1,11.7,11.7v368a11.72,11.72,0,0,1-11.7,11.7H640.89a11.72,11.72,0,0,1-11.7-11.7v-368a11.72,11.72,0,0,1,11.7-11.7H780.41m0-64.18H640.89A75.89,75.89,0,0,0,565,273.45v368a75.89,75.89,0,0,0,75.89,75.88H780.41a75.88,75.88,0,0,0,75.88-75.88v-368a75.88,75.88,0,0,0-75.88-75.88Z" transform="translate(-223.71 -2.76)"/><line class="cls-2" x1="486.94" y1="220.86" x2="486.94" y2="32.09"/><line class="cls-2" x1="486.94" y1="877.29" x2="486.94" y2="688.52"/></svg>