<svg width="683" height="538" viewBox="0 0 683 538" fill="none" xmlns="http://www.w3.org/2000/svg">
<path d="M506.361 57.2645C513.35 57.1484 520.302 57.8042 527.108 59.2215C533.9 60.6588 540.512 62.8369 546.845 65.7229C559.53 71.5622 570.858 80.2158 580.126 91.1469C589.44 102.088 596.543 115.042 601.013 129.239C603.226 136.299 604.764 143.615 605.602 151.074L605.891 153.891C605.934 154.357 606.001 154.823 606.038 155.293L606.107 156.704L606.282 159.853C606.334 160.519 606.316 161.184 606.328 161.851L606.326 163.841L581.71 165.075L582.939 166.537C583.314 167.033 583.688 167.539 584.059 168.05C584.803 169.072 585.609 170.126 586.345 171.217C587.741 173.386 589.223 175.686 590.466 178.102L591.44 179.939C591.602 180.248 591.78 180.573 591.92 180.872L592.358 181.816C592.94 183.061 593.515 184.375 594.096 185.701C594.678 187.028 595.13 188.371 595.647 189.752L596.406 191.842C596.654 192.547 596.866 193.253 597.096 193.969C600.837 206.245 602.431 219.259 601.801 232.362C613.941 224.948 624.883 215.349 634.132 203.997C634.738 203.245 635.359 202.491 635.956 201.715L637.724 199.382C638.89 197.806 640.115 196.212 641.244 194.561C642.373 192.911 643.47 191.23 644.585 189.515L645.413 188.222C645.693 187.788 645.939 187.351 646.205 186.914L647.771 184.249C649.917 180.678 651.782 176.953 653.707 173.106C654.63 171.179 655.486 169.223 656.369 167.236C656.8 166.247 657.24 165.262 657.666 164.229L658.859 161.179L634.248 162.413L634.225 159.868C634.209 159.019 634.223 158.172 634.161 157.328L633.945 153.308L633.844 151.51C633.809 150.914 633.734 150.319 633.679 149.724L633.319 146.155C632.262 136.657 630.311 127.341 627.494 118.351C621.826 100.374 612.825 83.9717 601.025 70.1197C589.219 56.2183 574.794 45.2168 558.645 37.7972C542.486 30.3895 524.948 26.7279 507.121 27.04L506.361 57.2645Z" fill="white"/>
<path d="M565 363C565 459.65 486.65 538 390 538C293.35 538 215 459.65 215 363C215 266.35 293.35 188 390 188C486.65 188 565 266.35 565 363ZM250 363C250 440.32 312.68 503 390 503C467.32 503 530 440.32 530 363C530 285.68 467.32 223 390 223C312.68 223 250 285.68 250 363Z" fill="white"/>
<path d="M486.142 226.947C482.797 196.731 471.638 167.907 453.764 143.315C435.89 118.724 411.918 99.2129 384.209 86.7043C356.501 74.1957 326.012 69.1211 295.746 71.9805C265.479 74.8398 236.48 85.5344 211.605 103.011C186.729 120.487 166.835 144.142 153.883 171.646C140.93 199.15 135.366 229.553 137.739 259.862C140.111 290.17 150.339 319.337 167.413 344.491C184.487 369.644 207.819 389.916 235.111 403.308L250.53 371.888C228.697 361.173 210.031 344.956 196.371 324.834C182.712 304.711 174.53 281.377 172.632 257.13C170.734 232.884 175.185 208.561 185.547 186.558C195.909 164.555 211.824 145.631 231.725 131.65C251.625 117.668 274.825 109.113 299.038 106.825C323.251 104.538 347.642 108.597 369.809 118.604C391.975 128.611 411.153 144.22 425.452 163.893C439.751 183.567 448.679 206.626 451.355 230.799L486.142 226.947Z" fill="white"/>
<path d="M176.577 489.007C169.643 489.892 162.662 490.005 155.742 489.346C148.834 488.665 142.022 487.228 135.41 485.056C122.161 480.648 109.951 473.294 99.5366 463.449C89.0768 453.6 80.5922 441.506 74.5875 427.888C71.611 421.114 69.2782 414.011 67.6245 406.69L67.0266 403.923C66.9332 403.464 66.8149 403.008 66.727 402.544L66.5031 401.15L65.9822 398.039C65.8572 397.383 65.8018 396.72 65.7167 396.059L65.5001 394.08L89.8287 390.145L88.4468 388.827C88.0188 388.375 87.5923 387.914 87.1665 387.447C86.3149 386.513 85.3982 385.554 84.5465 384.55C82.9208 382.548 81.1942 380.425 79.693 378.161L78.5234 376.442C78.3281 376.152 78.1151 375.849 77.9432 375.568L77.4044 374.677C76.6888 373.504 75.9731 372.262 75.2493 371.007C74.5255 369.753 73.9285 368.468 73.2622 367.151L72.2778 365.158C71.9541 364.485 71.6655 363.806 71.3584 363.119C66.2898 351.33 63.2731 338.571 62.4583 325.478C51.2082 334.183 41.3902 344.928 33.4471 357.229C32.9274 358.043 32.3926 358.86 31.8845 359.697L30.3842 362.212C29.3994 363.906 28.3573 365.625 27.4168 367.39C26.4762 369.155 25.5712 370.946 24.6515 372.773L23.9706 374.15C23.7399 374.612 23.5437 375.073 23.3274 375.537L22.0642 378.358C20.3242 382.144 18.8812 386.051 17.3948 390.06C16.689 392.077 16.0539 394.115 15.3944 396.188C15.0754 397.217 14.7468 398.246 14.4364 399.319L13.5868 402.482L37.9154 398.547L38.213 401.074C38.3221 401.916 38.4016 402.759 38.5562 403.591L39.2129 407.563L39.5116 409.339C39.6116 409.927 39.7516 410.51 39.8717 411.096L40.6221 414.603C42.7177 423.928 45.6824 432.972 49.4704 441.597C57.0778 458.85 67.8277 474.172 81.0802 486.649C94.3475 499.169 109.899 508.517 126.77 514.113C143.645 519.697 161.478 521.406 179.161 519.134L176.577 489.007Z" fill="white"/>
</svg>
